<svg width="121" height="110" viewBox="0 0 121 110" fill="none" xmlns="http://www.w3.org/2000/svg">
<path d="M14.2498 0.154251C14.2209 0.231369 14.2305 11.0476 14.2786 24.187C14.3747 49.9068 14.3362 48.3933 14.8456 48.3933C15.0859 48.3933 15.3646 48.1041 16.0469 47.1401C17.3731 45.2699 19.6892 44.3445 22.0918 44.7301C23.6199 44.9807 24.8404 46.099 25.4074 47.786C26.0898 49.8104 25.9264 51.5553 24.8981 53.1459C23.9562 54.5919 22.4186 56.0958 20.631 57.3393C19.9199 57.831 15.5568 60.4435 12.6352 62.1305C9.46378 63.9525 7.28222 65.572 5.28326 67.5771C2.3617 70.4981 0.670268 73.6118 0.122476 77.063C-0.0985627 78.4994 -0.0120692 81.16 0.314684 82.5193C1.13157 85.9608 2.83261 88.9782 5.29287 91.34C6.6191 92.6125 7.81079 93.4512 9.51183 94.3091C11.0687 95.0996 13.8365 96.0733 15.4222 96.3914C16.1718 96.5456 18.3534 96.7866 18.9588 96.7866C19.0165 96.7866 19.0357 97.2301 18.9973 98.0109C18.8339 101.79 17.3923 104.316 15.0474 104.942C14.7783 105.019 14.4131 105.077 14.2498 105.077H13.9326L14.2786 104.624C14.711 104.046 15.0282 103.429 15.23 102.725C15.4607 101.934 15.3934 100.238 15.1051 99.4377C14.6342 98.1555 13.5482 96.9602 12.3277 96.3818C11.4243 95.9576 10.8188 95.8226 9.72326 95.8226C8.17598 95.8226 7.12845 96.2564 6.17702 97.3072C5.26403 98.3098 4.89884 99.322 4.89884 100.835C4.89884 102.359 5.25442 103.361 6.55183 105.463C8.34897 108.364 10.79 109.724 14.2209 109.733C16.489 109.743 18.0939 109.01 19.3721 107.362C20.9482 105.337 21.7555 102.474 21.8804 98.4158L21.9381 96.5264L22.9568 96.3143C29.6744 94.8972 35.7482 89.6144 37.7568 83.4255C38.3142 81.7095 38.4775 80.707 38.4679 78.9525C38.4679 76.1472 37.9201 74.412 36.1422 71.5489C34.4892 68.8593 32.423 67.0758 29.2996 65.6395C27.5409 64.8297 26.7721 64.6465 25.1768 64.6465C23.6872 64.6465 23.0913 64.7719 21.8323 65.3695C19.2664 66.5649 16.8734 69.2545 14.8936 73.178C14.0095 74.9229 12.962 77.5257 13.0869 77.6607C13.1157 77.68 13.3464 77.3618 13.6059 76.9473C14.9129 74.8747 16.5947 73.0431 18.0939 72.0598C18.5456 71.7706 18.9396 71.5296 18.9685 71.5296C18.9973 71.5296 19.0261 75.241 19.0261 79.7815V88.0238L18.4783 87.966C13.2503 87.3586 10.0308 83.8689 9.51183 78.268C9.32923 76.3207 9.68481 74.0264 10.396 72.455C11.2321 70.633 13.8365 67.9435 16.3833 66.2757C18.2861 65.0321 21.8612 62.8342 22.5916 62.4679C24.4752 61.5135 26.2627 60.2025 27.6274 58.795C28.7038 57.6767 29.3861 56.7031 29.857 55.6234C30.4144 54.322 30.5105 53.8111 30.5009 52.1048C30.5009 50.707 30.4721 50.4756 30.2318 49.6947C29.9243 48.6729 29.5399 47.786 29.0594 46.9377C28.8672 46.6003 28.6269 46.1665 28.5308 45.9833C28.2713 45.4435 26.4453 43.7372 25.4459 43.0913C23.0817 41.5489 20.6407 41.3368 18.4495 42.4647C17.8825 42.7539 17.7383 42.8021 17.5846 42.7057C17.3731 42.5707 17.1136 30.7037 17.0368 17.4004C16.9791 6.06364 17.0656 2.16903 17.45 0.308495L17.5173 7.62939e-06H15.9123C14.5477 7.62939e-06 14.2978 0.0192871 14.2498 0.154251ZM24.5521 70.9897C27.2814 71.8766 29.1747 73.9782 30.0012 77.0437C30.2895 78.1138 30.3087 80.5816 30.0396 81.5553C29.3861 83.9364 27.5025 86.1729 25.3882 87.1176C24.9077 87.3297 23.4277 87.6864 22.2264 87.8696L21.8131 87.937V79.4537C21.8131 74.7879 21.7843 70.8933 21.7459 70.7969C21.6882 70.6427 21.7651 70.633 22.7357 70.6909C23.4853 70.7198 24.0043 70.8066 24.5521 70.9897Z" fill="#2B2B2B"/>
<path d="M9.39641 1.34958C9.01199 1.73519 9.01199 1.73519 9.05043 2.37143C9.08887 2.96912 9.1177 3.0366 9.44446 3.33544C9.7616 3.63429 9.84809 3.66321 10.3863 3.66321C10.9437 3.66321 11.0013 3.64393 11.3473 3.28724C11.7029 2.93056 11.7221 2.88236 11.7221 2.31359C11.7221 1.74483 11.7029 1.69663 11.3473 1.33994C10.9917 0.98326 10.9437 0.963979 10.3767 0.963979C9.80965 0.963979 9.7616 0.98326 9.39641 1.34958Z" fill="#2B2B2B"/>
<path d="M20.554 1.33994C20.1984 1.69663 20.1792 1.74483 20.1792 2.31359C20.1792 2.88236 20.1984 2.93056 20.554 3.28724C20.9096 3.64393 20.9576 3.66321 21.5247 3.66321C22.0917 3.66321 22.1397 3.64393 22.4953 3.28724C22.8509 2.93056 22.8701 2.88236 22.8701 2.31359C22.8701 1.74483 22.8509 1.69663 22.4953 1.33994C22.1397 0.98326 22.0917 0.963979 21.5247 0.963979C20.9576 0.963979 20.9096 0.98326 20.554 1.33994Z" fill="#2B2B2B"/>
<path d="M9.93481 5.20564C9.8291 5.2442 9.61767 5.42737 9.47352 5.60089C9.22365 5.89009 9.20442 5.97685 9.24287 6.53598C9.28131 7.10474 9.31014 7.18187 9.63689 7.48071C9.95404 7.77955 10.0405 7.80847 10.5787 7.80847C11.1361 7.80847 11.1938 7.78919 11.5397 7.43251C11.8953 7.07582 11.9146 7.02762 11.9146 6.45886C11.9146 5.89009 11.8953 5.84189 11.5397 5.48521C11.1938 5.13816 11.1265 5.10924 10.6556 5.11888C10.3673 5.11888 10.0501 5.15744 9.93481 5.20564Z" fill="#2B2B2B"/>
<path d="M20.1697 5.48521C19.8141 5.84189 19.7949 5.89009 19.7949 6.45886C19.7949 7.02762 19.8141 7.07582 20.1697 7.43251C20.5253 7.78919 20.5734 7.80847 21.1404 7.80847C21.7074 7.80847 21.7554 7.78919 22.111 7.43251C22.4666 7.07582 22.4858 7.02762 22.4858 6.45886C22.4858 5.89009 22.4666 5.84189 22.111 5.48521C21.7554 5.12852 21.7074 5.10924 21.1404 5.10924C20.5734 5.10924 20.5253 5.12852 20.1697 5.48521Z" fill="#2B2B2B"/>
<path d="M10.1267 9.44734C10.021 9.4859 9.80957 9.66907 9.66541 9.84259C9.41554 10.1318 9.39632 10.2186 9.43476 10.7777C9.4732 11.3464 9.50203 11.4236 9.82879 11.7224C10.1459 12.0213 10.2324 12.0502 10.7706 12.0502C11.328 12.0502 11.3761 12.0309 11.7413 11.6646C12.1257 11.279 12.1257 11.279 12.0872 10.6427C12.0488 10.045 12.02 9.97755 11.6932 9.67871C11.3857 9.3895 11.28 9.35094 10.8379 9.36058C10.5592 9.36058 10.242 9.39914 10.1267 9.44734Z" fill="#2B2B2B"/>
<path d="M19.6893 9.72691C19.3337 10.0836 19.3145 10.1318 19.3145 10.7006C19.3145 11.2693 19.3337 11.3175 19.6893 11.6742C20.0448 12.0309 20.0929 12.0502 20.6599 12.0502C21.2269 12.0502 21.275 12.0309 21.6306 11.6742C21.9861 11.3175 22.0054 11.2693 22.0054 10.7006C22.0054 10.1318 21.9861 10.0836 21.6306 9.72691C21.275 9.37022 21.2269 9.35094 20.6599 9.35094C20.0929 9.35094 20.0448 9.37022 19.6893 9.72691Z" fill="#2B2B2B"/>
<path d="M54.2407 39.4921C50.9373 40.0463 48.0597 42.3555 46.9432 45.3343C46.4137 46.7314 46.2641 47.8051 46.3332 49.791C46.4022 51.8346 46.5519 52.5158 47.2194 53.9014C48.0597 55.6217 49.3604 56.9033 51.0754 57.723C52.3876 58.3465 53.0667 58.4851 55.104 58.5428C57.2219 58.6121 58.5686 58.4273 59.9153 57.9078L60.744 57.596L60.7786 56.453C60.8016 55.564 60.7786 55.333 60.6635 55.3792C59.2247 56.0027 58.7643 56.1643 58.0161 56.3144C56.8651 56.5569 54.7357 56.5569 53.8379 56.326C52.5487 55.9912 51.743 55.5178 50.7876 54.5595C49.3373 53.0931 48.7964 51.6384 48.7964 49.1675C48.7964 46.6967 49.4064 45.0688 50.9027 43.5678C52.3761 42.0784 53.8954 41.4895 56.2435 41.4895C56.9687 41.4895 57.8434 41.5704 58.2693 41.6627C59.0635 41.8475 60.4217 42.3555 60.6635 42.5518C60.7671 42.6441 60.8016 42.4017 60.8016 41.3972V40.1271L60.0879 39.8847C59.6851 39.7577 59.052 39.596 58.6837 39.5383C58.0276 39.4228 54.8508 39.3882 54.2407 39.4921Z" fill="#2B2B2B"/>
<path d="M64.1396 49.0521V58.3466H70.5163H76.893L77.1923 57.5614C77.3535 57.1342 77.7908 55.9797 78.1592 54.9983L78.8268 53.2086L82.9129 53.174L86.9991 53.1509L88.012 55.691L89.0249 58.2311H90.3486C91.5571 58.2311 91.6723 58.2196 91.6032 58.0233C91.5571 57.9194 89.8882 53.7628 87.8739 48.7981L84.2251 39.7577H82.959H81.6928L78.0095 48.9136L74.3263 58.0579L74.2917 57.1573L74.2572 56.2683H70.3552H66.4417V48.013V39.7577H65.2907H64.1396V49.0521ZM84.9502 47.8052L86.2164 51.0727H82.9359C80.3576 51.0727 79.667 51.038 79.7131 50.9226C79.7361 50.8533 80.4497 48.9598 81.29 46.743C82.1302 44.5146 82.8324 42.6326 82.8669 42.5403C82.8899 42.4479 83.0856 42.8635 83.2928 43.4639C83.5115 44.0643 84.2481 46.0156 84.9502 47.8052Z" fill="#2B2B2B"/>
<path d="M91.6722 39.9193C91.6952 40.0117 93.2606 44.1682 95.1598 49.156L98.6129 58.2311H99.9481C101.122 58.2311 101.306 58.208 101.375 58.0233C101.41 57.9193 102.998 53.8552 104.886 48.9944C106.774 44.1336 108.362 40.0694 108.397 39.954C108.477 39.7692 108.374 39.7577 107.177 39.7577H105.864L103.067 47.2279C101.525 51.3382 100.201 54.9636 100.121 55.2753L99.9711 55.8411L99.8905 55.3446C99.833 54.9867 95.5972 43.2214 94.3311 39.8962C94.285 39.8039 93.9052 39.7577 92.9498 39.7577C91.8679 39.7577 91.6376 39.7923 91.6722 39.9193Z" fill="#2B2B2B"/>
<path d="M110.641 48.9944V58.2311H115.821H121V57.2497V56.2683H116.972H112.943V53.0932V49.918H116.454H119.964V48.8789V47.8398H116.454H112.943V44.8379V41.8359H116.742H120.54V40.7968V39.7577H115.591H110.641V48.9944Z" fill="#2B2B2B"/>
<path d="M84.7889 62.0411C83.1429 62.4683 82.0034 63.2881 81.4394 64.4542C81.1632 65.02 81.1171 65.2278 81.1171 66.1399C81.1286 67.029 81.1747 67.2599 81.4279 67.7679C81.9919 68.8417 82.8667 69.5113 85.4565 70.8276C87.4132 71.8205 87.8967 72.1207 88.4492 72.6633C89.0017 73.2175 89.1053 73.4023 89.1743 73.8641C89.3355 74.9148 88.8635 75.7692 87.8852 76.2541C87.4363 76.4619 87.0795 76.5197 85.9975 76.5658C84.4436 76.6236 83.3041 76.3927 82.0034 75.7576C81.5775 75.5498 81.1977 75.3535 81.1517 75.342C81.0941 75.3189 81.0596 75.8269 81.0596 76.4735V77.6396L81.497 77.8243C82.8552 78.3901 85.986 78.621 87.655 78.2631C89.2779 77.9167 90.5556 77.0046 91.1081 75.8038C91.4764 74.9841 91.4649 73.2637 91.085 72.5479C90.3829 71.2201 89.5887 70.5966 86.8147 69.1996C83.9487 67.7563 83.4652 67.3407 83.2926 66.2438C83.189 65.5511 83.4077 65.0084 84.0062 64.4889C84.6738 63.8885 85.5141 63.6576 86.9643 63.6576C88.2765 63.6576 89.0362 63.8077 90.0146 64.2464L90.7282 64.5697V63.4382C90.7282 62.3067 90.7282 62.2952 90.4174 62.1681C89.37 61.7525 86.1816 61.6717 84.7889 62.0411Z" fill="#2B2B2B"/>
<path d="M99.0732 61.9834C94.9295 62.8955 92.5008 66.8558 93.1339 71.6704C93.3986 73.6447 94.1353 75.1457 95.4705 76.4273C96.3338 77.2586 97.0013 77.6627 98.1294 78.0553C99.2574 78.4594 101.882 78.5633 103.194 78.2746C105.933 77.6627 108.005 75.6653 108.799 72.8942C109.34 71.0123 109.214 67.9757 108.535 66.3708C107.614 64.1656 105.715 62.5145 103.505 61.9949C102.572 61.7756 100.052 61.764 99.0732 61.9834ZM102.941 63.8423C104.851 64.408 106.037 65.6434 106.67 67.6986C106.958 68.6454 107.027 70.8968 106.797 71.9706C106.313 74.2682 104.874 75.8731 102.78 76.4273C101.962 76.6467 100.132 76.6351 99.3494 76.4042C97.5884 75.8846 96.2762 74.5453 95.6086 72.5825C95.3439 71.8205 95.2978 71.4741 95.2863 70.2964C95.2748 68.7839 95.4129 68.045 95.9079 66.9481C96.564 65.5049 97.738 64.4311 99.2228 63.9231C100.19 63.5998 101.974 63.5536 102.941 63.8423Z" fill="#2B2B2B"/>
<path d="M47.5649 70.1927V78.3556L50.6497 78.2863C52.5604 78.2401 54.0222 78.1478 54.5287 78.0439C58.799 77.1664 61.2737 74.1644 61.2622 69.8578C61.2392 65.8052 59.5126 63.3921 55.8984 62.3761C55.0696 62.1452 54.6668 62.1221 51.2828 62.0759L47.5649 62.0182V70.1927ZM55.3229 64.2696C57.8551 65.1587 59.0752 66.9945 59.0752 69.9502C59.0752 72.9521 57.6364 75.0766 55.0236 75.9656C54.1603 76.2658 52.3417 76.4736 50.5921 76.4736H49.6368V70.1696V63.8655L52.0309 63.9117C54.2639 63.9579 54.4711 63.981 55.3229 64.2696Z" fill="#2B2B2B"/>
<path d="M64.0244 70.1811V78.3209H68.571H73.1175V77.3973V76.4736H69.6069H66.0963V73.7026V70.9316H69.1465H72.1967V70.0079V69.0842H69.1465H66.0963V66.4864V63.8886H69.3767H72.6571V62.9649V62.0412H68.3408H64.0244V70.1811Z" fill="#2B2B2B"/>
<path d="M111.907 70.1811V78.3209H116.339H120.77V77.3973V76.4736H117.375H113.979V69.2574V62.0412H112.943H111.907V70.1811Z" fill="#2B2B2B"/>
</svg>
