<svg width="121" height="110" viewBox="0 0 121 110" fill="none" xmlns="http://www.w3.org/2000/svg">
<path d="M14.2498 0.420853C14.2209 0.497971 14.2305 11.3142 14.2786 24.4536C14.3747 50.1734 14.3362 48.6599 14.8456 48.6599C15.0859 48.6599 15.3646 48.3707 16.0469 47.4067C17.3731 45.5365 19.6892 44.6111 22.0918 44.9967C23.6199 45.2473 24.8404 46.3656 25.4074 48.0526C26.0898 50.077 25.9264 51.8219 24.8981 53.4125C23.9562 54.8585 22.4186 56.3624 20.631 57.6059C19.9199 58.0976 15.5568 60.7101 12.6352 62.3971C9.46378 64.2191 7.28222 65.8386 5.28326 67.8437C2.3617 70.7647 0.670268 73.8784 0.122476 77.3296C-0.0985627 78.766 -0.0120692 81.4266 0.314684 82.7859C1.13157 86.2274 2.83261 89.2448 5.29287 91.6066C6.6191 92.8791 7.81079 93.7178 9.51183 94.5757C11.0687 95.3662 13.8365 96.3399 15.4222 96.658C16.1718 96.8122 18.3534 97.0532 18.9588 97.0532C19.0165 97.0532 19.0357 97.4967 18.9973 98.2775C18.8339 102.056 17.3923 104.582 15.0474 105.209C14.7783 105.286 14.4131 105.344 14.2498 105.344H13.9326L14.2786 104.891C14.711 104.312 15.0282 103.695 15.23 102.992C15.4607 102.201 15.3934 100.504 15.1051 99.7043C14.6342 98.4221 13.5482 97.2268 12.3277 96.6484C11.4243 96.2242 10.8188 96.0892 9.72326 96.0892C8.17598 96.0892 7.12845 96.523 6.17702 97.5738C5.26403 98.5764 4.89884 99.5886 4.89884 101.102C4.89884 102.625 5.25442 103.628 6.55183 105.729C8.34897 108.631 10.79 109.99 14.2209 110C16.489 110.01 18.0939 109.277 19.3721 107.628C20.9482 105.604 21.7555 102.741 21.8804 98.6824L21.9381 96.793L22.9568 96.5809C29.6744 95.1638 35.7482 89.881 37.7568 83.6921C38.3142 81.9761 38.4775 80.9736 38.4679 79.2191C38.4679 76.4138 37.9201 74.6786 36.1422 71.8155C34.4892 69.1259 32.423 67.3424 29.2996 65.9061C27.5409 65.0963 26.7721 64.9131 25.1768 64.9131C23.6872 64.9131 23.0913 65.0385 21.8323 65.6362C19.2664 66.8315 16.8734 69.5211 14.8936 73.4446C14.0095 75.1895 12.962 77.7923 13.0869 77.9273C13.1157 77.9466 13.3464 77.6284 13.6059 77.2139C14.9129 75.1413 16.5947 73.3097 18.0939 72.3264C18.5456 72.0372 18.9396 71.7962 18.9685 71.7962C18.9973 71.7962 19.0261 75.5076 19.0261 80.0481V88.2904L18.4783 88.2326C13.2503 87.6252 10.0308 84.1355 9.51183 78.5346C9.32923 76.5873 9.68481 74.293 10.396 72.7216C11.2321 70.8996 13.8365 68.2101 16.3833 66.5423C18.2861 65.2987 21.8612 63.1008 22.5916 62.7345C24.4752 61.7801 26.2627 60.4691 27.6274 59.0616C28.7038 57.9433 29.3861 56.9697 29.857 55.89C30.4144 54.5886 30.5105 54.0777 30.5009 52.3714C30.5009 50.9736 30.4721 50.7422 30.2318 49.9613C29.9243 48.9395 29.5399 48.0526 29.0594 47.2043C28.8672 46.8669 28.6269 46.4331 28.5308 46.2499C28.2713 45.7101 26.4453 44.0038 25.4459 43.3579C23.0817 41.8155 20.6407 41.6034 18.4495 42.7313C17.8825 43.0205 17.7383 43.0687 17.5846 42.9723C17.3731 42.8373 17.1136 30.9703 17.0368 17.667C16.9791 6.33024 17.0656 2.43563 17.45 0.575096L17.5173 0.266609H15.9123C14.5477 0.266609 14.2978 0.285889 14.2498 0.420853ZM24.5521 71.2563C27.2814 72.1432 29.1747 74.2448 30.0012 77.3103C30.2895 78.3804 30.3087 80.8482 30.0396 81.8219C29.3861 84.203 27.5025 86.4395 25.3882 87.3842C24.9077 87.5963 23.4277 87.953 22.2264 88.1362L21.8131 88.2036V79.7203C21.8131 75.0545 21.7843 71.1599 21.7459 71.0635C21.6882 70.9093 21.7651 70.8996 22.7357 70.9575C23.4853 70.9864 24.0043 71.0732 24.5521 71.2563Z" fill="white"/>
<path d="M9.39641 1.61631C9.01199 2.00191 9.01199 2.00191 9.05043 2.63816C9.08887 3.23584 9.1177 3.30332 9.44446 3.60217C9.7616 3.90101 9.84809 3.92993 10.3863 3.92993C10.9437 3.92993 11.0013 3.91065 11.3473 3.55397C11.7029 3.19728 11.7221 3.14908 11.7221 2.58032C11.7221 2.01155 11.7029 1.96335 11.3473 1.60667C10.9917 1.24998 10.9437 1.2307 10.3767 1.2307C9.80965 1.2307 9.7616 1.24998 9.39641 1.61631Z" fill="white"/>
<path d="M20.5542 1.60667C20.1987 1.96335 20.1794 2.01155 20.1794 2.58032C20.1794 3.14908 20.1987 3.19728 20.5542 3.55397C20.9098 3.91065 20.9579 3.92993 21.5249 3.92993C22.0919 3.92993 22.14 3.91065 22.4955 3.55397C22.8511 3.19728 22.8704 3.14908 22.8704 2.58032C22.8704 2.01155 22.8511 1.96335 22.4955 1.60667C22.14 1.24998 22.0919 1.2307 21.5249 1.2307C20.9579 1.2307 20.9098 1.24998 20.5542 1.60667Z" fill="white"/>
<path d="M9.93457 5.47237C9.82886 5.51093 9.61743 5.69409 9.47327 5.86761C9.2234 6.15681 9.20418 6.24358 9.24262 6.8027C9.28106 7.37147 9.30989 7.44859 9.63665 7.74743C9.95379 8.04628 10.0403 8.0752 10.5785 8.0752C11.1359 8.0752 11.1935 8.05592 11.5395 7.69923C11.8951 7.34255 11.9143 7.29435 11.9143 6.72558C11.9143 6.15681 11.8951 6.10861 11.5395 5.75193C11.1935 5.40489 11.1263 5.37597 10.6553 5.38561C10.367 5.38561 10.0499 5.42417 9.93457 5.47237Z" fill="white"/>
<path d="M20.1697 5.75193C19.8141 6.10861 19.7949 6.15681 19.7949 6.72558C19.7949 7.29435 19.8141 7.34255 20.1697 7.69923C20.5253 8.05592 20.5734 8.0752 21.1404 8.0752C21.7074 8.0752 21.7554 8.05592 22.111 7.69923C22.4666 7.34255 22.4858 7.29435 22.4858 6.72558C22.4858 6.15681 22.4666 6.10861 22.111 5.75193C21.7554 5.39525 21.7074 5.37597 21.1404 5.37597C20.5734 5.37597 20.5253 5.39525 20.1697 5.75193Z" fill="white"/>
<path d="M10.127 9.71382C10.0212 9.75238 9.80981 9.93555 9.66565 10.1091C9.41578 10.3983 9.39656 10.485 9.43501 11.0442C9.47345 11.6129 9.50228 11.69 9.82903 11.9889C10.1462 12.2877 10.2327 12.3167 10.7708 12.3167C11.3283 12.3167 11.3763 12.2974 11.7415 11.931C12.1259 11.5454 12.1259 11.5454 12.0875 10.9092C12.049 10.3115 12.0202 10.244 11.6934 9.94519C11.3859 9.65598 11.2802 9.61742 10.8381 9.62706C10.5594 9.62706 10.2423 9.66562 10.127 9.71382Z" fill="white"/>
<path d="M19.6893 9.99339C19.3337 10.3501 19.3145 10.3983 19.3145 10.967C19.3145 11.5358 19.3337 11.584 19.6893 11.9407C20.0448 12.2974 20.0929 12.3167 20.6599 12.3167C21.2269 12.3167 21.275 12.2974 21.6306 11.9407C21.9861 11.584 22.0054 11.5358 22.0054 10.967C22.0054 10.3983 21.9861 10.3501 21.6306 9.99339C21.275 9.6367 21.2269 9.61742 20.6599 9.61742C20.0929 9.61742 20.0448 9.6367 19.6893 9.99339Z" fill="white"/>
<path d="M54.2405 39.7588C50.937 40.313 48.0595 42.6222 46.943 45.601C46.4135 46.9981 46.2638 48.0719 46.3329 50.0577C46.402 52.1014 46.5516 52.7826 47.2192 54.1681C48.0595 55.8884 49.3601 57.17 51.0751 57.9898C52.3873 58.6132 53.0664 58.7518 55.1037 58.8095C57.2216 58.8788 58.5683 58.6941 59.915 58.1745L60.7438 57.8628L60.7783 56.7197C60.8013 55.8307 60.7783 55.5998 60.6632 55.6459C59.2244 56.2694 58.764 56.4311 58.0159 56.5812C56.8648 56.8236 54.7354 56.8236 53.8376 56.5927C52.5485 56.2579 51.7427 55.7845 50.7874 54.8262C49.3371 53.3599 48.7961 51.9051 48.7961 49.4343C48.7961 46.9634 49.4062 45.3355 50.9025 43.8345C52.3758 42.3451 53.8952 41.7563 56.2433 41.7563C56.9684 41.7563 57.8432 41.8371 58.2691 41.9294C59.0633 42.1142 60.4215 42.6222 60.6632 42.8185C60.7668 42.9108 60.8013 42.6684 60.8013 41.6639V40.3938L60.0877 40.1514C59.6848 40.0244 59.0518 39.8627 58.6834 39.805C58.0274 39.6895 54.8505 39.6549 54.2405 39.7588Z" fill="white"/>
<path d="M64.1392 49.3186V58.613H70.5159H76.8926L77.1918 57.8279C77.353 57.4007 77.7904 56.2461 78.1587 55.2647L78.8263 53.4751L82.9124 53.4405L86.9986 53.4174L88.0115 55.9575L89.0244 58.4976H90.3481C91.5567 58.4976 91.6718 58.486 91.6027 58.2898C91.5567 58.1858 89.8877 54.0293 87.8734 49.0646L84.2246 40.0242H82.9585H81.6923L78.0091 49.1801L74.3258 58.3244L74.2912 57.4238L74.2567 56.5348H70.3547H66.4412V48.2795V40.0242H65.2902H64.1392V49.3186ZM84.9498 48.0717L86.2159 51.3391H82.9355C80.3572 51.3391 79.6665 51.3045 79.7126 51.189C79.7356 51.1198 80.4492 49.2262 81.2895 47.0094C82.1297 44.7811 82.8319 42.8991 82.8664 42.8067C82.8894 42.7144 83.0851 43.13 83.2923 43.7304C83.511 44.3308 84.2476 46.282 84.9498 48.0717Z" fill="white"/>
<path d="M91.6719 40.1858C91.695 40.2782 93.2604 44.4347 95.1595 49.4225L98.6126 58.4976H99.9478C101.122 58.4976 101.306 58.4745 101.375 58.2897C101.41 58.1858 102.998 54.1217 104.886 49.2609C106.773 44.4 108.362 40.3359 108.396 40.2204C108.477 40.0357 108.373 40.0242 107.176 40.0242H105.864L103.067 47.4943C101.525 51.6047 100.201 55.2301 100.12 55.5418L99.9708 56.1076L99.8903 55.6111C99.8327 55.2532 95.5969 43.4879 94.3308 40.1627C94.2848 40.0703 93.9049 40.0242 92.9496 40.0242C91.8676 40.0242 91.6374 40.0588 91.6719 40.1858Z" fill="white"/>
<path d="M110.641 49.2609V58.4976H115.82H121V57.5162V56.5348H116.971H112.943V53.3596V50.1845H116.453H119.964V49.1454V48.1063H116.453H112.943V45.1043V42.1024H116.741H120.539V41.0633V40.0242H115.59H110.641V49.2609Z" fill="white"/>
<path d="M84.7887 62.3076C83.1427 62.7348 82.0032 63.5546 81.4392 64.7207C81.1629 65.2865 81.1169 65.4943 81.1169 66.4064C81.1284 67.2954 81.1744 67.5264 81.4277 68.0344C81.9917 69.1081 82.8664 69.7778 85.4563 71.094C87.413 72.087 87.8964 72.3872 88.4489 72.9298C89.0014 73.484 89.105 73.6688 89.1741 74.1306C89.3352 75.1813 88.8633 76.0357 87.8849 76.5206C87.436 76.7284 87.0792 76.7861 85.9972 76.8323C84.4434 76.8901 83.3038 76.6591 82.0032 76.0241C81.5773 75.8163 81.1974 75.62 81.1514 75.6085C81.0939 75.5854 81.0593 76.0934 81.0593 76.74V77.9061L81.4967 78.0908C82.8549 78.6566 85.9857 78.8875 87.6547 78.5296C89.2777 78.1832 90.5553 77.2711 91.1078 76.0703C91.4761 75.2505 91.4646 73.5302 91.0848 72.8144C90.3827 71.4866 89.5884 70.8631 86.8145 69.4661C83.9484 68.0228 83.465 67.6072 83.2923 66.5103C83.1887 65.8176 83.4074 65.2749 84.006 64.7553C84.6736 64.155 85.5138 63.924 86.9641 63.924C88.2763 63.924 89.036 64.0741 90.0143 64.5129L90.728 64.8362V63.7047C90.728 62.5732 90.728 62.5616 90.4172 62.4346C89.3698 62.019 86.1814 61.9382 84.7887 62.3076Z" fill="white"/>
<path d="M99.073 62.25C94.9293 63.1621 92.5006 67.1224 93.1336 71.937C93.3984 73.9113 94.135 75.4123 95.4702 76.6939C96.3335 77.5252 97.0011 77.9293 98.1291 78.3219C99.2571 78.726 101.881 78.8299 103.194 78.5412C105.933 77.9293 108.005 75.9319 108.799 73.1608C109.34 71.2789 109.214 68.2423 108.534 66.6374C107.614 64.4322 105.714 62.7811 103.504 62.2615C102.572 62.0422 100.051 62.0306 99.073 62.25ZM102.94 64.1089C104.851 64.6746 106.037 65.91 106.67 67.9652C106.958 68.912 107.027 71.1634 106.796 72.2372C106.313 74.5348 104.874 76.1397 102.779 76.6939C101.962 76.9133 100.132 76.9017 99.3492 76.6708C97.5881 76.1512 96.276 74.8119 95.6084 72.8491C95.3436 72.0871 95.2976 71.7407 95.2861 70.563C95.2746 69.0505 95.4127 68.3116 95.9076 67.2147C96.5637 65.7715 97.7378 64.6977 99.2226 64.1897C100.189 63.8664 101.974 63.8202 102.94 64.1089Z" fill="white"/>
<path d="M47.5645 70.4591V78.6221L50.6492 78.5528C52.5599 78.5066 54.0217 78.4142 54.5282 78.3103C58.7985 77.4328 61.2732 74.4309 61.2617 70.1243C61.2387 66.0717 59.5121 63.6586 55.8979 62.6426C55.0692 62.4117 54.6663 62.3886 51.2823 62.3424L47.5645 62.2847V70.4591ZM55.3224 64.5361C57.8547 65.4251 59.0747 67.2609 59.0747 70.2167C59.0747 73.2186 57.636 75.343 55.0231 76.2321C54.1598 76.5323 52.3412 76.7401 50.5917 76.7401H49.6363V70.436V64.132L52.0304 64.1782C54.2634 64.2244 54.4706 64.2475 55.3224 64.5361Z" fill="white"/>
<path d="M64.0244 70.4476V78.5874H68.571H73.1175V77.6637V76.7401H69.6069H66.0963V73.9691V71.198H69.1465H72.1967V70.2744V69.3507H69.1465H66.0963V66.7529V64.1551H69.3767H72.6571V63.2314V62.3077H68.3408H64.0244V70.4476Z" fill="white"/>
<path d="M111.907 70.4476V78.5874H116.338H120.77V77.6637V76.7401H117.374H113.979V69.5239V62.3077H112.943H111.907V70.4476Z" fill="white"/>
</svg>
