<?xml version="1.0" standalone="no"?>
<!DOCTYPE svg PUBLIC "-//W3C//DTD SVG 20010904//EN"
 "http://www.w3.org/TR/2001/REC-SVG-20010904/DTD/svg10.dtd">
<svg version="1.0" xmlns="http://www.w3.org/2000/svg"
 width="1338.000000pt" height="1080.000000pt" viewBox="0 0 1338.000000 1080.000000"
 preserveAspectRatio="xMidYMid meet">
<metadata>
Created by potrace 1.16, written by Peter Selinger 2001-2019
</metadata>
<g transform="translate(0.000000,1080.000000) scale(0.100000,-0.100000)"
fill="#000000" stroke="none">
<path d="M1850 8430 c-134 -29 -130 -28 -130 -58 0 -55 29 -130 53 -138 51
-18 96 7 97 52 0 30 -24 47 -60 42 -39 -6 -50 19 -12 28 15 3 42 10 61 15 19
5 35 7 35 6 1 -1 6 -11 12 -22 7 -12 17 -47 25 -79 15 -67 35 -86 82 -77 23 5
35 15 42 34 13 40 -4 62 -47 62 -24 0 -34 4 -31 13 3 6 1 12 -5 12 -6 0 -13
19 -17 43 -4 23 -12 51 -19 62 -11 20 -12 20 -86 5z"/>
<path d="M3290 8338 c1 -79 20 -212 32 -219 15 -10 60 -12 82 -3 10 4 16 18
16 39 0 34 -13 45 -54 45 -20 0 -24 7 -30 46 -12 87 -14 84 58 84 36 0 67 -3
69 -7 3 -5 11 -51 18 -103 7 -52 18 -98 23 -102 13 -9 59 -10 80 -2 10 4 16
18 16 39 0 34 -13 45 -54 45 -21 0 -24 7 -35 85 l-13 85 -104 0 -104 0 0 -32z"/>
<path d="M1115 8081 l-140 -48 3 -32 c4 -43 59 -173 80 -188 17 -14 60 -17 86
-7 10 4 16 18 16 40 0 27 -5 35 -24 40 -13 3 -35 4 -47 2 -19 -2 -27 4 -41 36
-10 21 -18 43 -18 50 0 17 90 48 105 36 6 -5 20 -29 31 -52 22 -50 30 -58 66
-58 45 0 58 10 58 45 0 35 -13 45 -60 45 -18 0 -33 8 -43 24 -16 23 -15 24 29
36 24 7 46 11 48 9 2 -2 20 -38 42 -79 43 -84 48 -90 86 -90 45 0 58 10 58 45
0 36 -12 45 -64 45 -30 0 -35 5 -62 62 -29 60 -49 89 -62 87 -4 0 -70 -22
-147 -48z"/>
<path d="M2527 8123 c-10 -9 -9 -41 1 -45 5 -1 37 -46 72 -98 35 -52 70 -100
78 -106 20 -15 75 2 90 27 27 42 -22 88 -72 69 -20 -7 -28 1 -76 76 -49 77
-74 97 -93 77z"/>
<path d="M10693 7775 c-33 -14 -53 -41 -53 -73 0 -14 -9 -21 -32 -26 -41 -8
-105 -76 -113 -119 -11 -56 -3 -92 20 -92 16 0 21 9 27 49 9 65 35 99 84 110
21 4 53 15 70 23 27 14 33 14 62 -1 17 -9 39 -16 49 -16 12 0 14 -3 6 -11 -16
-16 -5 -39 19 -39 13 0 18 -6 16 -17 -3 -15 -17 -19 -74 -23 -77 -5 -107 -21
-102 -54 2 -15 9 -20 23 -18 11 2 52 7 92 11 79 8 99 22 114 75 5 18 25 50 44
70 59 62 41 130 -28 109 -28 -8 -37 -6 -67 17 -43 33 -112 44 -157 25z"/>
<path d="M4790 7755 c0 -8 8 -15 19 -15 38 0 42 -20 39 -221 l-3 -193 -32 -10
c-62 -17 -33 -26 87 -26 118 0 157 12 85 26 -46 8 -55 27 -55 117 l0 75 78 4
c123 6 175 46 175 134 0 40 -4 51 -31 75 -44 39 -89 49 -234 49 -107 0 -128
-2 -128 -15z m280 -45 c22 -22 27 -88 9 -122 -13 -25 -68 -48 -114 -48 l-35 0
0 95 0 95 60 0 c47 0 64 -4 80 -20z"/>
<path d="M9550 7755 c-10 -12 -10 -34 4 -119 9 -58 16 -130 16 -160 0 -48 3
-56 19 -56 16 0 19 12 26 113 4 61 8 139 9 172 l1 60 -31 3 c-19 2 -36 -3 -44
-13z"/>
<path d="M9002 7666 c-6 -13 -24 -32 -41 -42 -35 -21 -41 -44 -11 -44 19 0 20
-7 20 -124 0 -153 9 -171 89 -171 39 0 56 5 73 22 17 17 19 26 11 34 -9 9 -16
8 -28 -5 -22 -22 -52 -20 -65 3 -5 11 -10 69 -10 130 l0 111 45 0 c33 0 45 4
45 15 0 11 -12 15 -45 15 l-45 0 0 40 c0 46 -20 54 -38 16z"/>
<path d="M11598 7642 c-43 -21 -80 -43 -83 -50 -3 -7 2 -25 10 -40 9 -15 32
-58 53 -96 43 -81 71 -96 121 -65 35 21 41 57 14 81 -18 15 -26 16 -70 2 -19
-5 -25 1 -47 45 l-24 51 48 25 c27 14 53 25 58 25 11 0 87 -110 97 -139 12
-38 81 -36 107 3 15 22 8 54 -15 69 -20 13 -26 13 -49 1 -24 -13 -27 -12 -33
6 -3 11 -10 20 -14 20 -5 0 -14 14 -21 30 -7 17 -16 30 -20 30 -4 0 -10 9 -13
20 -7 28 -29 24 -119 -18z"/>
<path d="M2075 7651 c-53 -13 -76 -32 -96 -79 -21 -49 -19 -108 6 -147 12 -19
10 -20 -47 -17 -57 4 -60 2 -93 -32 -19 -20 -37 -52 -41 -71 -7 -39 -24 -38
-24 3 0 15 12 38 27 54 26 27 26 29 9 46 -17 16 -19 15 -52 -22 -25 -29 -34
-49 -34 -75 0 -47 -20 -28 -27 28 -7 49 -26 69 -48 51 -32 -27 15 -146 73
-184 l28 -19 -22 -24 c-62 -67 -29 -176 98 -324 l60 -70 -15 -32 c-25 -53 -26
-100 -1 -95 8 2 28 33 44 70 31 75 81 144 110 153 40 13 18 55 -28 55 -25 0
-80 42 -98 76 -15 28 -15 33 0 62 27 52 71 65 126 37 16 -8 31 -24 35 -35 9
-28 51 -26 66 2 20 37 39 121 39 173 l0 50 61 -5 60 -5 37 -95 c30 -77 42 -96
60 -98 26 -4 27 3 6 54 -9 22 -27 67 -39 101 l-23 62 32 11 c111 36 145 205
57 284 -31 28 -108 26 -156 -4 -20 -12 -37 -21 -39 -19 -1 2 -10 17 -20 32
-10 16 -33 35 -51 43 -37 15 -36 15 -80 5z"/>
<path d="M4657 7543 c-3 -54 -11 -122 -17 -151 -15 -67 -7 -100 25 -108 45
-11 58 11 51 86 -3 36 -9 111 -12 168 -6 87 -9 102 -24 102 -14 0 -18 -14 -23
-97z"/>
<path d="M5377 7590 c-36 -31 -47 -30 -47 3 0 17 -5 19 -46 12 -26 -3 -53 -9
-60 -12 -22 -8 -16 -31 9 -35 21 -3 22 -7 25 -116 3 -112 3 -112 -23 -122 -50
-19 -26 -30 65 -30 92 0 110 8 64 29 -25 11 -26 13 -23 96 3 66 8 89 25 112
19 25 26 28 72 25 44 -3 51 -1 57 18 17 55 -63 69 -118 20z"/>
<path d="M5595 7604 c-67 -34 -95 -79 -95 -149 0 -180 234 -238 338 -85 20 29
23 44 20 93 -5 69 -27 103 -88 135 -53 26 -131 29 -175 6z m119 -28 c80 -34
90 -187 14 -240 -49 -34 -116 -10 -139 51 -14 37 -11 111 7 144 8 17 30 37 47
44 40 18 32 17 71 1z"/>
<path d="M5880 7606 c0 -7 9 -16 19 -19 25 -6 122 -138 113 -153 -18 -32 -98
-107 -124 -116 -50 -17 -30 -28 52 -28 48 0 80 4 80 10 0 6 -7 13 -15 16 -21
9 -19 22 11 62 l27 34 33 -38 c39 -46 40 -51 14 -59 -45 -14 -15 -25 70 -25
90 0 115 11 66 30 -14 5 -50 39 -80 76 l-56 68 22 25 c60 69 93 101 105 101 7
0 13 7 13 15 0 12 -15 15 -75 15 -60 0 -75 -3 -75 -15 0 -8 6 -15 14 -15 27 0
28 -21 4 -55 -12 -19 -26 -35 -29 -35 -4 0 -18 18 -33 41 -27 40 -27 41 -7 46
12 3 21 12 21 19 0 11 -19 14 -85 14 -66 0 -85 -3 -85 -14z"/>
<path d="M6300 7611 c-38 -7 -48 -33 -15 -40 31 -5 35 -19 35 -129 l0 -103
-30 -17 c-16 -9 -30 -20 -30 -24 0 -5 43 -8 95 -8 91 0 121 11 73 26 -13 4
-26 12 -30 18 -4 6 -8 73 -8 149 l0 137 -27 -1 c-16 -1 -44 -4 -63 -8z"/>
<path d="M6535 7615 c-5 -2 -22 -6 -37 -9 -35 -8 -36 -19 -3 -34 25 -11 25
-14 25 -127 0 -114 0 -116 -25 -125 -50 -19 -26 -30 65 -30 92 0 110 8 65 28
-24 11 -25 15 -25 110 0 107 11 131 67 153 35 13 41 12 68 -16 23 -23 25 -31
25 -130 0 -103 -1 -106 -25 -115 -50 -19 -26 -30 65 -30 92 0 110 8 65 28 -24
11 -25 15 -25 110 0 107 11 131 67 153 35 13 41 12 68 -16 23 -23 25 -31 25
-130 0 -103 -1 -106 -25 -115 -50 -19 -26 -30 65 -30 91 0 110 8 67 27 -23 11
-24 18 -30 126 -3 66 -11 123 -18 135 -30 48 -119 56 -193 17 -25 -13 -46 -20
-46 -15 0 5 -14 17 -32 26 -43 22 -128 15 -168 -14 l-30 -22 -6 25 c-6 23 -21
29 -49 20z"/>
<path d="M7197 7609 c-27 -11 -45 -48 -32 -68 14 -23 54 -12 70 19 20 39 67
42 91 6 28 -44 16 -65 -61 -97 -68 -28 -125 -75 -125 -104 0 -78 102 -111 173
-55 30 24 37 25 37 5 0 -36 92 -44 120 -10 18 21 3 37 -21 22 -31 -19 -39 5
-39 129 0 147 -7 157 -111 161 -41 1 -86 -2 -102 -8z"/>
<path d="M7545 7615 c-5 -2 -22 -6 -37 -9 -35 -8 -36 -19 -3 -34 25 -11 25
-14 25 -127 0 -114 0 -116 -25 -125 -50 -19 -26 -30 65 -30 92 0 110 8 65 28
-24 11 -25 15 -25 110 0 107 11 131 67 153 35 13 41 12 68 -16 23 -23 25 -31
25 -130 0 -103 -1 -106 -25 -115 -50 -19 -26 -30 65 -30 92 0 110 8 65 28 -24
11 -25 15 -25 110 0 107 11 131 67 153 35 13 41 12 68 -16 23 -23 25 -31 25
-130 0 -103 -1 -106 -25 -115 -50 -19 -26 -30 65 -30 91 0 110 8 67 27 -23 11
-24 18 -30 126 -3 66 -11 123 -18 135 -30 48 -119 56 -193 17 -25 -13 -46 -20
-46 -15 0 5 -14 17 -32 26 -43 22 -128 15 -168 -14 l-30 -22 -6 25 c-6 23 -21
29 -49 20z"/>
<path d="M8260 7609 c-63 -26 -100 -85 -100 -159 0 -88 53 -153 133 -165 77
-12 194 38 167 70 -9 11 -18 9 -47 -11 -85 -58 -173 -2 -173 111 l0 35 115 0
115 0 0 30 c0 19 -11 42 -29 62 -26 29 -35 32 -92 35 -35 1 -75 -2 -89 -8z"/>
<path d="M8575 7615 c-5 -2 -22 -6 -37 -9 -34 -8 -36 -18 -5 -31 21 -9 22 -17
25 -128 3 -117 3 -117 -23 -129 -45 -20 -27 -28 65 -28 86 0 115 11 68 26 -34
10 -38 21 -38 107 0 93 17 132 65 153 74 31 105 -14 105 -150 0 -85 -4 -98
-32 -109 -43 -15 -14 -27 67 -27 86 0 104 8 61 28 -23 10 -24 15 -27 131 -4
108 -6 123 -26 142 -33 33 -117 38 -171 10 -51 -26 -52 -26 -52 -1 0 19 -17
24 -45 15z"/>
<path d="M9270 7609 c-63 -26 -100 -85 -100 -159 0 -88 53 -153 133 -165 77
-12 194 38 167 70 -9 11 -18 9 -47 -11 -85 -58 -173 -2 -173 111 l0 35 115 0
115 0 0 30 c0 19 -11 42 -29 62 -26 29 -35 32 -92 35 -35 1 -75 -2 -89 -8z"/>
<path d="M3616 7507 c-15 -19 -26 -42 -26 -52 0 -18 -41 -79 -70 -103 -28 -24
-155 -85 -224 -108 -77 -27 -269 -69 -361 -79 -69 -9 -85 -18 -85 -51 0 -17
-6 -24 -19 -24 -35 0 -44 -24 -37 -102 14 -151 44 -220 86 -198 15 8 24 6 40
-10 12 -12 29 -19 38 -16 9 3 40 8 67 12 50 7 50 7 32 -14 -25 -27 -33 -146
-17 -240 10 -62 15 -72 32 -72 17 0 19 5 14 28 -3 15 -9 66 -12 114 -10 128 7
156 134 221 41 22 52 24 52 12 0 -13 -16 -34 -97 -125 -13 -14 -23 -28 -23
-31 0 -10 22 -48 64 -114 22 -33 49 -78 61 -99 23 -44 45 -58 45 -29 0 10 18
36 40 57 40 40 52 80 30 102 -7 7 -4 25 10 56 24 55 19 73 -25 88 -26 9 -34
17 -38 43 -2 18 -3 33 -2 35 9 10 318 1 367 -11 61 -15 82 -10 76 19 -6 33
-87 47 -286 48 -100 1 -182 4 -182 9 0 4 -18 7 -39 7 -27 0 -41 5 -45 16 -9
25 -36 194 -36 231 0 29 3 32 51 43 117 28 266 97 321 148 l27 25 5 -24 c2
-13 10 -59 17 -101 12 -77 18 -86 51 -73 12 5 12 15 1 68 -20 92 -21 243 -2
262 13 13 18 12 46 -8 18 -12 44 -41 59 -64 19 -31 34 -43 50 -43 30 0 30 11
0 58 -49 75 -104 122 -143 122 -13 0 -32 -13 -47 -33z m-477 -467 c6 -55 18
-120 25 -143 l13 -43 -84 -13 c-46 -6 -97 -14 -112 -17 -24 -5 -30 -1 -43 28
-23 48 -40 163 -33 213 l7 43 86 14 c141 24 126 33 141 -82z"/>
<path d="M12533 7436 c-42 -14 -107 -50 -131 -73 -17 -17 -42 -78 -42 -104 0
-11 -16 -37 -35 -56 -20 -20 -34 -42 -31 -49 18 -47 116 42 116 105 0 33 19
65 53 88 61 40 72 39 105 -15 46 -75 9 -97 -49 -29 -31 36 -66 32 -54 -6 19
-62 18 -79 -9 -103 -29 -28 -32 -37 -13 -52 14 -12 54 8 70 35 6 11 13 10 32
-4 14 -10 25 -24 25 -30 0 -7 5 -13 11 -13 24 0 -14 -29 -72 -56 -32 -15 -59
-29 -59 -31 0 -3 5 -13 10 -23 10 -18 11 -18 58 2 97 42 232 163 232 208 0 58
-22 101 -81 160 -64 64 -71 66 -136 46z"/>
<path d="M1257 7429 c-10 -6 -28 -9 -39 -6 -11 3 -26 3 -34 0 -21 -8 -44 -57
-44 -95 0 -21 -9 -41 -23 -55 -41 -38 -75 -97 -82 -140 -6 -38 -4 -43 12 -43
14 0 22 12 31 43 6 23 28 62 49 86 l39 44 28 -25 29 -24 -27 -27 c-28 -28 -35
-67 -13 -67 8 0 22 9 33 21 40 44 96 60 133 37 26 -16 55 -3 45 20 -13 30 -16
99 -5 121 14 26 31 27 31 4 0 -10 11 -41 24 -70 l24 -52 -43 -33 c-24 -19 -62
-51 -85 -72 -38 -34 -41 -40 -27 -53 14 -14 22 -10 82 41 37 32 78 64 91 73
30 19 31 56 4 101 -11 17 -25 52 -31 76 -13 54 -36 76 -86 86 -21 4 -51 11
-68 14 -16 3 -38 1 -48 -5z"/>
<path d="M3656 7097 c-17 -12 -16 -16 9 -72 70 -153 154 -265 200 -265 30 0
62 37 75 90 11 40 10 50 -11 95 l-23 50 -7 -71 c-4 -39 -12 -81 -19 -93 -10
-19 -14 -20 -28 -9 -34 27 -53 56 -112 171 -34 64 -62 117 -63 117 -2 0 -11
-6 -21 -13z"/>
<path d="M11194 7061 c-26 -12 -58 -40 -84 -74 l-41 -56 -46 25 c-54 28 -116
31 -170 9 -54 -23 -72 -43 -105 -115 l-29 -64 20 -116 c11 -63 25 -153 31
-200 18 -148 18 -147 48 -153 15 -3 43 -16 62 -30 31 -21 35 -28 33 -63 -2
-30 2 -42 17 -52 28 -17 36 -10 44 39 l7 42 35 -59 c48 -80 62 -93 129 -115
l59 -19 23 22 c13 12 23 30 23 40 0 10 4 18 10 18 20 0 90 73 119 124 25 42
33 75 47 181 9 72 18 135 19 141 2 5 21 16 43 22 59 18 92 62 92 122 0 27 -3
56 -6 65 -8 19 -55 45 -84 45 -17 0 -20 6 -20 47 0 64 -33 128 -82 161 -53 35
-136 41 -194 13z m35 -373 c35 -16 57 -19 103 -15 l58 5 0 -65 c0 -109 -30
-283 -56 -328 -29 -50 -70 -90 -106 -104 -70 -26 -199 67 -224 163 -9 35 -17
44 -60 64 -70 34 -104 69 -104 108 0 18 4 35 9 38 15 10 40 -28 44 -67 5 -48
20 -65 43 -47 21 18 12 83 -17 123 -25 34 -13 35 23 0 23 -22 30 -24 42 -13
12 9 13 17 5 32 -6 11 -9 20 -7 21 108 54 121 63 141 98 21 36 23 37 42 23 11
-8 40 -24 64 -36z"/>
<path d="M2242 6987 c-40 -48 -14 -124 57 -164 25 -15 48 -28 49 -29 10 -7
-22 -75 -38 -84 -29 -16 -79 6 -136 60 -63 60 -88 62 -92 10 -2 -38 2 -48 66
-139 52 -74 72 -79 72 -18 l0 42 49 -3 c58 -4 85 8 111 51 21 34 27 111 10
122 -17 10 -12 77 7 90 21 15 10 48 -14 43 -10 -3 -35 4 -55 14 -44 21 -71 23
-86 5z"/>
<path d="M2500 6928 c-34 -17 -45 -29 -47 -48 -1 -14 -5 -41 -8 -60 -6 -33 -4
-36 37 -58 24 -12 49 -22 56 -22 24 0 11 36 -20 55 l-33 20 43 3 c34 3 42 7
42 23 0 16 -7 19 -47 19 l-48 0 58 27 c39 18 57 32 57 44 0 26 -35 25 -90 -3z"/>
<path d="M1750 6607 c0 -12 39 -81 84 -149 10 -16 15 -28 12 -28 -4 0 -43 29
-87 65 -45 36 -85 65 -90 65 -24 0 1 -25 116 -119 167 -135 178 -135 89 0 -30
46 -67 105 -82 131 -27 48 -42 60 -42 35z"/>
<path d="M10293 6609 c-24 -4 -59 -15 -78 -25 -80 -38 -144 -158 -130 -244 8
-50 55 -123 94 -146 l30 -18 -40 -34 c-73 -63 -108 -163 -89 -256 21 -101 80
-165 189 -203 93 -33 156 -38 211 -19 25 9 56 16 70 16 46 1 52 12 35 61 -37
102 -97 332 -115 437 -14 80 -20 161 -20 272 0 135 -2 159 -16 164 -21 8 -89
6 -141 -5z"/>
<path d="M12109 6258 c-3 -28 71 -261 85 -270 13 -9 59 -10 80 -2 10 4 16 18
16 39 0 34 -13 45 -55 45 -19 0 -26 10 -43 68 -12 37 -24 82 -27 100 -5 25
-11 32 -31 32 -13 0 -25 -6 -25 -12z"/>
<path d="M5895 5969 c-55 -5 -105 -11 -112 -14 -7 -2 -13 -31 -15 -75 l-3 -71
-69 -29 -68 -29 -69 44 c-37 25 -74 45 -81 45 -13 0 -198 -179 -198 -192 0 -4
23 -34 50 -68 l51 -60 -33 -68 -33 -67 -64 -12 c-35 -7 -70 -18 -77 -24 -9 -7
-14 -33 -14 -69 0 -31 -3 -85 -6 -119 l-7 -61 -57 0 c-49 0 -61 -4 -84 -26
l-26 -27 0 -843 0 -843 -87 -3 -88 -3 -3 -51 c-3 -49 -4 -51 -49 -73 l-46 -22
-26 20 c-65 52 -67 52 -137 -24 -35 -39 -63 -74 -63 -80 0 -5 12 -25 28 -44
l28 -34 -17 -46 c-17 -45 -19 -46 -74 -55 l-56 -9 0 -37 c0 -20 3 -65 6 -99
l7 -61 41 0 c51 0 57 -5 80 -57 l18 -41 -31 -45 c-17 -25 -31 -49 -31 -54 0
-5 29 -37 64 -72 72 -71 58 -70 133 -15 20 15 26 15 68 -1 27 -11 45 -24 45
-34 0 -9 5 -32 10 -52 l10 -36 103 -7 c56 -4 106 -11 111 -17 6 -5 678 -9
1757 -9 1739 0 1748 0 1754 -20 3 -11 12 -21 18 -21 41 -5 305 5 318 11 9 5
20 36 28 77 8 37 17 77 21 89 10 24 158 93 168 78 15 -21 129 -104 144 -104
14 0 202 192 219 223 4 7 -18 49 -48 95 l-54 83 32 77 c17 42 37 80 43 84 6 4
40 8 76 8 36 0 72 5 80 10 19 12 41 305 25 325 -5 7 -49 18 -97 25 l-88 13
-31 80 -30 80 45 67 c25 37 46 73 46 81 0 8 -20 35 -43 60 -23 26 -71 79 -106
118 -35 39 -71 71 -80 71 -9 0 -47 -25 -84 -54 -47 -38 -74 -53 -85 -48 -9 3
-47 21 -84 39 l-68 33 0 78 c0 47 -5 83 -12 90 -8 8 -50 12 -124 12 -61 0
-126 3 -143 6 l-31 7 0 487 0 487 -26 27 -27 26 -917 0 -917 0 -7 53 c-3 28
-6 84 -6 123 0 41 -5 75 -12 82 -7 7 -40 12 -78 12 l-65 0 -33 71 -33 70 52
66 51 65 -103 99 c-57 54 -110 99 -117 99 -8 0 -38 -18 -68 -39 -59 -42 -55
-42 -144 -10 -53 18 -58 25 -65 97 -4 37 -12 73 -17 80 -11 13 -17 13 -163 1z
m140 -96 c11 -93 14 -96 110 -131 l87 -31 59 41 59 42 67 -64 c38 -35 74 -69
82 -76 12 -11 7 -22 -33 -74 l-48 -61 42 -94 42 -93 64 -4 c35 -2 66 -6 69 -9
3 -3 8 -54 12 -112 l6 -107 -238 0 -237 0 7 23 c4 12 10 50 12 83 8 108 -48
197 -159 256 -61 32 -185 32 -246 0 -111 -59 -167 -148 -159 -256 2 -33 8 -71
12 -83 l7 -23 -226 0 -226 0 0 64 c0 35 3 84 6 109 l7 45 69 18 70 17 39 85
c33 70 37 87 27 101 -7 9 -29 37 -50 62 l-37 46 57 54 c108 102 91 97 167 46
54 -36 72 -44 89 -37 165 68 161 66 164 96 1 16 5 48 8 71 l5 42 52 4 c29 2
75 4 103 5 l52 2 7 -57z m-15 -449 c45 -19 96 -69 121 -116 23 -45 25 -124 5
-173 l-15 -35 -216 0 -216 0 -15 35 c-20 49 -18 128 5 174 35 68 97 113 186
135 29 7 105 -4 145 -20z m2504 -390 c13 -13 16 -42 16 -165 l0 -149 -1755 0
-1755 0 0 149 c0 123 3 152 16 165 14 14 185 16 1739 16 1554 0 1725 -2 1739
-16z m16 -1499 c0 -1132 0 -1145 -20 -1165 -20 -20 -33 -20 -1735 -20 -1702 0
-1715 0 -1735 20 -20 20 -20 33 -20 1165 l0 1145 1755 0 1755 0 0 -1145z m288
469 c20 -6 22 -12 22 -79 0 -46 5 -76 13 -82 6 -6 56 -31 109 -56 l97 -45 68
51 c37 28 71 54 74 59 5 7 32 -20 150 -155 l36 -41 -45 -63 c-51 -74 -51 -80
1 -207 l32 -80 85 -14 c47 -8 86 -15 88 -17 2 -2 0 -57 -4 -124 l-7 -121 -79
0 -79 0 -29 -62 c-16 -35 -38 -85 -48 -113 l-19 -50 52 -80 53 -80 -42 -45
c-24 -25 -60 -64 -81 -87 -21 -24 -42 -43 -47 -43 -5 0 -37 23 -71 50 -34 28
-70 50 -80 50 -17 0 -170 -65 -193 -82 -6 -4 -17 -39 -24 -77 -7 -38 -16 -75
-21 -82 -5 -9 -46 -14 -128 -17 l-121 -4 0 267 c0 251 1 267 18 259 9 -4 54
-9 99 -12 71 -3 89 -1 136 21 118 54 179 149 185 290 7 149 -49 253 -168 315
-62 32 -69 34 -150 30 -47 -3 -93 -8 -102 -12 -17 -8 -18 9 -18 268 l0 276
108 0 c59 0 117 -3 130 -6z m1 -586 c218 -102 217 -431 -2 -537 -55 -27 -146
-30 -200 -7 l-37 15 0 260 c0 294 -6 274 83 290 55 10 102 4 156 -21z m-3849
-242 l0 -155 -54 6 c-131 14 -223 -92 -201 -232 5 -37 16 -57 53 -95 53 -55
100 -70 164 -53 l38 10 0 -148 0 -149 -74 0 -74 0 -7 49 c-7 49 -7 49 -66 75
-33 14 -62 26 -63 26 -2 0 -20 -14 -41 -30 -21 -17 -41 -29 -45 -28 -3 2 -25
24 -49 50 l-43 47 31 46 30 45 -29 65 -29 65 -46 0 -45 0 0 39 c0 21 -3 52 -6
69 -6 30 -6 30 47 39 l54 8 24 60 c25 63 25 58 -16 122 -14 21 -12 25 33 73
25 27 50 50 55 50 4 0 21 -11 37 -25 38 -31 49 -31 117 2 54 27 55 28 55 69 0
47 4 49 103 53 l47 1 0 -154z m-26 -186 l26 -10 0 -144 0 -145 -41 -12 c-56
-17 -112 3 -153 54 -27 34 -31 46 -31 102 0 49 5 70 21 92 47 63 115 87 178
63z"/>
<path d="M7986 4454 c-9 -36 -69 -113 -111 -143 -39 -27 -42 -38 -20 -67 19
-25 19 -24 -11 -59 -14 -16 -42 -51 -62 -77 l-36 -48 -1288 0 -1288 0 0 -415
0 -415 695 0 695 0 0 -49 c0 -27 9 -77 19 -110 l19 -61 -99 0 -99 0 0 -225 0
-225 220 0 220 0 0 50 0 50 49 0 c34 0 64 -8 103 -29 77 -41 200 -72 263 -65
28 3 159 8 293 11 137 2 242 9 242 14 0 5 -80 9 -187 9 -145 1 -183 3 -168 12
11 6 22 14 25 17 21 25 60 31 190 31 183 0 187 18 5 22 l-135 3 22 32 23 33
113 0 c68 0 112 4 112 10 0 6 -41 10 -104 10 l-104 0 16 35 16 35 88 0 c52 0
88 4 88 10 0 6 -35 10 -86 10 l-85 0 3 33 3 32 83 3 c106 4 108 22 2 22 -57 0
-80 4 -81 13 -1 6 -3 21 -5 32 -14 84 -11 152 8 193 l20 42 369 0 369 0 0 415
0 415 -92 0 c-50 0 -88 3 -85 6 10 11 -11 41 -32 47 -21 5 -38 -23 -26 -43 3
-5 -3 -10 -15 -10 -17 0 -20 4 -15 23 19 62 87 150 126 162 15 5 18 12 13 28
-32 104 -124 184 -230 201 -39 5 -42 4 -48 -20z m-252 -416 c-4 -7 -32 -44
-63 -83 -30 -38 -55 -71 -57 -73 -1 -2 -27 13 -58 34 -148 98 -312 86 -376
-28 -19 -34 -24 -59 -26 -123 -1 -52 -7 -92 -17 -112 -21 -40 -105 -83 -163
-83 -188 0 -353 -121 -394 -287 l-11 -43 -694 0 -695 0 0 405 0 405 1281 0
c1021 0 1279 -3 1273 -12z m646 -393 l0 -405 -361 0 c-231 0 -358 3 -354 10 6
9 21 14 129 41 99 25 155 118 135 223 -12 65 -41 116 -103 183 l-54 59 32 39
c17 22 71 88 120 148 l87 107 185 0 184 0 0 -405z m-919 281 c45 -20 127 -76
111 -76 -7 0 -32 13 -55 28 -23 16 -57 34 -76 40 -44 16 -129 15 -161 -1 -38
-18 -67 -87 -75 -175 -8 -84 -24 -125 -62 -159 -32 -28 -64 -38 -193 -62 -125
-22 -185 -48 -241 -105 -42 -41 -89 -125 -89 -158 0 -10 -5 -18 -11 -18 -36 0
43 154 106 205 61 49 99 64 240 92 72 14 142 31 157 39 49 25 67 64 79 170 14
129 38 173 105 194 37 12 121 4 165 -14z m87 -273 c48 -39 72 -88 72 -146 0
-149 -169 -233 -293 -145 -83 59 -90 207 -13 278 43 39 76 50 140 46 46 -3 66
-10 94 -33z m-469 -440 c-7 -10 -22 -28 -34 -41 -20 -24 -20 -24 0 -38 33 -24
88 -67 121 -96 l31 -27 29 35 c49 61 94 107 94 97 0 -5 -11 -20 -24 -32 -35
-32 -86 -107 -79 -115 9 -8 -27 -46 -44 -46 -8 0 -61 38 -118 84 l-105 84 21
26 c14 18 27 25 39 21 13 -4 26 4 45 30 15 19 30 35 32 35 3 0 -1 -8 -8 -17z
m-459 -235 c5 -13 26 -44 46 -70 20 -27 31 -48 25 -48 -6 0 -11 -4 -11 -10 0
-5 10 -10 23 -10 13 0 38 -15 57 -35 l34 -35 -57 0 c-31 0 -57 -4 -57 -10 0
-6 32 -10 75 -10 l75 0 0 -35 0 -35 -75 0 c-43 0 -75 -4 -75 -10 0 -6 32 -10
75 -10 l75 0 0 -45 0 -45 -210 0 -210 0 0 215 0 215 100 0 c95 0 101 -1 110
-22z"/>
<path d="M7372 3633 c-83 -41 -101 -155 -34 -225 77 -82 210 -49 243 60 11 38
10 48 -7 90 -35 83 -121 115 -202 75z m125 -12 c124 -57 79 -247 -57 -243 -85
2 -147 86 -121 164 17 49 35 68 78 83 49 18 50 18 100 -4z"/>
<path d="M7850 2785 l0 -225 220 0 220 0 0 225 0 225 -220 0 -220 0 0 -225z
m430 0 l0 -215 -210 0 -210 0 0 215 0 215 210 0 210 0 0 -215z"/>
<path d="M5200 2940 c0 -7 192 -10 555 -10 363 0 555 3 555 10 0 7 -192 10
-555 10 -363 0 -555 -3 -555 -10z"/>
<path d="M5200 2850 c0 -7 192 -10 555 -10 363 0 555 3 555 10 0 7 -192 10
-555 10 -363 0 -555 -3 -555 -10z"/>
<path d="M5200 2760 c0 -7 192 -10 555 -10 363 0 555 3 555 10 0 7 -192 10
-555 10 -363 0 -555 -3 -555 -10z"/>
<path d="M5200 2670 c0 -7 192 -10 555 -10 363 0 555 3 555 10 0 7 -192 10
-555 10 -363 0 -555 -3 -555 -10z"/>
<path d="M12085 5481 l-140 -48 3 -32 c4 -43 59 -173 80 -188 17 -14 60 -17
86 -7 10 4 16 18 16 40 0 27 -5 35 -24 40 -13 3 -35 4 -47 2 -19 -2 -27 4 -41
36 -10 21 -18 43 -18 50 0 17 90 48 105 36 6 -5 20 -29 31 -52 22 -50 30 -58
66 -58 45 0 58 10 58 45 0 35 -13 45 -60 45 -18 0 -33 8 -43 24 -16 23 -15 24
29 36 24 7 46 11 48 9 2 -2 20 -38 42 -79 43 -84 48 -90 86 -90 45 0 58 10 58
45 0 36 -12 45 -64 45 -30 0 -35 5 -62 62 -29 60 -49 89 -62 87 -4 0 -70 -22
-147 -48z"/>
<path d="M11427 5442 c-10 -11 -17 -35 -17 -59 0 -37 -5 -45 -42 -73 -117 -86
-331 -162 -497 -176 l-78 -7 -11 44 c-6 24 -16 84 -23 132 -11 77 -15 90 -36
100 -13 5 -25 8 -27 6 -2 -2 4 -58 14 -124 13 -85 16 -123 8 -132 -26 -31 14
-185 69 -267 26 -39 27 -46 27 -166 0 -69 -4 -287 -8 -485 -11 -433 -3 -531
50 -630 63 -120 130 -205 314 -395 l185 -192 16 -176 c9 -98 17 -178 18 -179
1 0 15 -6 32 -12 28 -10 31 -14 26 -40 -3 -15 -9 -50 -13 -77 -6 -47 -9 -50
-57 -74 -52 -26 -117 -104 -117 -141 0 -18 10 -19 155 -19 l155 0 29 58 c16
31 32 72 36 90 4 18 9 31 12 29 2 -3 10 -43 16 -89 l12 -83 32 -3 31 -3 5 78
c5 89 29 243 37 243 3 0 22 -25 43 -55 39 -56 44 -59 71 -49 23 9 21 19 -29
101 -25 40 -45 85 -45 98 0 34 -16 39 -48 17 -52 -36 -96 -47 -182 -47 -47 0
-101 3 -121 8 l-35 7 -16 193 c-9 105 -17 210 -17 232 -2 52 -33 228 -78 440
l-37 170 28 435 c15 239 29 447 32 462 3 14 1 29 -5 32 -11 7 95 168 156 236
38 42 41 49 29 66 -14 18 -15 18 -36 -1 -25 -23 -121 -148 -164 -214 -20 -31
-25 -46 -17 -54 8 -8 7 -15 -3 -26 -10 -12 -21 -139 -42 -475 l-30 -459 57
-281 c31 -155 59 -301 62 -326 l6 -44 -165 169 c-167 172 -278 318 -308 403
-32 89 -39 234 -30 577 5 182 9 393 9 470 l0 140 -36 65 c-21 36 -44 88 -52
115 l-14 50 66 2 c36 2 87 7 113 11 33 7 50 6 56 -2 5 -6 33 -59 62 -118 29
-59 58 -109 64 -111 21 -7 116 43 116 62 0 10 -22 62 -50 117 -48 98 -49 99
-27 108 12 5 48 22 80 37 l58 28 67 -32 c89 -42 208 -50 291 -18 l54 20 38
-30 c94 -74 192 -225 223 -344 26 -97 31 -245 12 -355 -35 -197 -143 -455
-280 -665 -36 -55 -66 -106 -66 -113 0 -7 13 -38 29 -70 63 -126 85 -219 100
-427 5 -71 17 -196 27 -277 15 -132 19 -148 36 -148 10 0 21 7 24 15 3 8 -4
95 -15 194 -12 98 -21 201 -21 228 0 131 -42 307 -101 425 l-29 57 66 103
c137 214 246 472 279 662 34 198 14 352 -67 516 -45 89 -65 118 -138 190 -88
88 -187 155 -307 207 l-64 28 6 43 c7 47 -8 57 -38 24z m149 -175 c27 -14 58
-32 68 -40 18 -13 16 -15 -27 -25 -25 -7 -64 -12 -85 -12 -47 0 -175 37 -170
50 2 5 23 24 48 43 43 33 47 34 81 22 19 -7 58 -24 85 -38z"/>
<path d="M10222 5280 c3 -87 11 -100 60 -100 45 0 58 10 58 45 0 35 -13 45
-56 45 -17 0 -24 6 -24 20 0 18 7 20 69 20 l68 0 7 -46 c3 -26 6 -68 6 -94 0
-51 9 -60 55 -60 42 0 55 10 55 45 0 33 -13 45 -50 45 -18 0 -21 10 -33 135
-2 18 -10 20 -111 23 l-108 3 4 -81z"/>
<path d="M2453 4980 c-108 -31 -269 -43 -500 -37 -202 5 -270 -3 -165 -19 91
-15 470 -8 568 9 110 20 166 38 172 55 5 15 3 14 -75 -8z"/>
<path d="M2565 4950 c-3 -5 7 -58 24 -117 76 -268 141 -585 162 -788 18 -174
-1 -298 -50 -325 -24 -12 -28 -45 -6 -54 8 -3 28 6 45 21 17 14 32 24 34 22 6
-6 43 -210 75 -414 42 -262 91 -592 91 -609 0 -9 -34 -32 -76 -53 -66 -32 -85
-37 -143 -36 -92 1 -154 30 -169 81 -17 55 -75 417 -123 762 -41 302 -43 308
-140 650 -54 190 -104 365 -111 390 -10 33 -19 46 -35 48 -19 3 -24 -5 -37
-50 -45 -160 -168 -606 -189 -688 -17 -64 -27 -136 -31 -220 -6 -133 -33 -354
-87 -717 l-32 -222 -75 -7 c-92 -8 -175 0 -238 24 l-49 18 3 80 c2 43 27 268
56 499 44 353 51 422 39 435 -31 34 -39 -9 -97 -485 -31 -258 -59 -483 -61
-499 -4 -24 2 -35 35 -66 22 -20 40 -45 39 -56 0 -16 -2 -16 -9 4 -10 24 -39
29 -58 10 -6 -6 -29 -12 -49 -12 l-38 -1 1 -42 c0 -26 8 -51 19 -63 18 -19 17
-20 -20 -36 -104 -43 -205 -94 -205 -102 0 -6 33 -16 73 -23 94 -17 503 -17
520 0 7 7 12 43 13 84 0 44 8 93 19 124 18 50 21 53 61 59 24 3 50 11 57 18
23 17 123 749 142 1036 6 94 12 119 154 629 22 79 42 145 43 147 2 1 45 -144
96 -324 l93 -326 59 -410 c63 -441 104 -675 123 -716 7 -14 33 -36 59 -50 44
-23 48 -28 48 -61 0 -20 6 -42 14 -48 8 -7 17 -42 21 -84 4 -40 12 -75 19 -79
6 -4 135 -8 287 -8 242 0 278 2 290 16 17 21 2 33 -114 89 -49 23 -84 46 -78
49 29 18 0 105 -32 93 -10 -4 -17 2 -21 18 -3 12 -13 25 -21 29 -18 7 -66 -10
-77 -27 -5 -8 -8 -7 -8 5 0 9 20 31 44 49 25 17 47 37 49 43 5 16 -84 609
-139 916 -14 80 -32 155 -40 167 -11 17 -13 42 -8 106 13 168 -44 525 -146
909 -28 103 -50 190 -50 193 0 9 -39 5 -45 -5z"/>
<path d="M1550 4877 c0 -13 -13 -167 -30 -343 -16 -175 -36 -410 -44 -521 -15
-197 -15 -203 4 -235 37 -63 127 -104 200 -92 60 10 70 15 70 35 0 21 -1 21
-80 19 -31 -1 -68 4 -84 10 -30 11 -65 45 -67 64 -5 47 29 499 66 870 21 209
21 216 -10 216 -20 0 -25 -5 -25 -23z"/>
<path d="M10930 4795 c-18 -22 -3 -35 73 -61 l62 -21 -62 -7 c-67 -7 -117 -36
-97 -56 8 -8 36 -8 105 1 52 6 126 9 165 6 77 -6 98 1 92 28 -3 16 -96 52
-309 120 -9 3 -22 -2 -29 -10z"/>
<path d="M2290 1616 c0 -7 9 -16 20 -19 19 -5 20 -14 20 -137 0 -123 -1 -132
-20 -137 -54 -14 -6 -23 124 -23 l144 0 4 45 c2 25 2 45 0 45 -2 0 -16 -14
-32 -31 -32 -35 -101 -50 -139 -30 -20 11 -21 19 -21 137 0 117 1 126 20 131
11 3 20 12 20 19 0 11 -17 14 -70 14 -53 0 -70 -3 -70 -14z"/>
<path d="M3763 1545 c-37 -39 -40 -45 -18 -45 12 0 15 -16 15 -88 0 -55 4 -92
12 -100 18 -18 84 -15 104 5 20 20 1 32 -21 13 -12 -10 -18 -10 -30 0 -11 9
-15 33 -15 91 l0 79 30 0 c17 0 30 5 30 10 0 6 -13 10 -30 10 -27 0 -30 3 -30
30 0 38 -7 37 -47 -5z"/>
<path d="M5663 1545 c-37 -39 -40 -45 -18 -45 12 0 15 -16 15 -88 0 -55 4 -92
12 -100 18 -18 84 -15 104 5 20 20 1 32 -21 13 -12 -10 -18 -10 -30 0 -11 9
-15 33 -15 91 l0 79 30 0 c17 0 30 5 30 10 0 6 -13 10 -30 10 -27 0 -30 3 -30
30 0 38 -7 37 -47 -5z"/>
<path d="M6523 1545 c-37 -39 -40 -45 -18 -45 12 0 15 -17 15 -89 0 -59 4 -92
13 -99 15 -13 247 -15 247 -3 0 5 -9 12 -19 16 -25 7 -31 33 -31 128 0 83 0
83 -59 71 -35 -7 -40 -19 -11 -27 18 -5 20 -14 20 -86 0 -45 -2 -81 -4 -81 -2
0 -12 -3 -22 -7 -12 -4 -15 -3 -10 5 9 16 -16 16 -32 0 -8 -8 -15 -8 -27 2
-11 9 -15 32 -15 91 l0 79 30 0 c17 0 30 5 30 10 0 6 -13 10 -30 10 -27 0 -30
3 -30 30 0 38 -7 37 -47 -5z"/>
<path d="M7653 1545 c-37 -39 -40 -45 -18 -45 12 0 15 -16 15 -88 0 -55 4 -92
12 -100 18 -18 84 -15 104 5 20 20 1 32 -21 13 -12 -10 -18 -10 -30 0 -11 9
-15 33 -15 91 l0 79 30 0 c17 0 30 5 30 10 0 6 -13 10 -30 10 -27 0 -30 3 -30
30 0 38 -7 37 -47 -5z"/>
<path d="M9813 1545 c-37 -39 -40 -45 -18 -45 12 0 15 -16 15 -88 0 -55 4 -92
12 -100 18 -18 84 -15 104 5 20 20 1 32 -21 13 -12 -10 -18 -10 -30 0 -11 9
-15 33 -15 91 l0 79 30 0 c17 0 30 5 30 10 0 6 -13 10 -30 10 -27 0 -30 3 -30
30 0 38 -7 37 -47 -5z"/>
<path d="M2674 1520 c-38 -15 -64 -59 -64 -107 0 -38 5 -50 34 -79 29 -29 41
-34 80 -34 102 0 160 75 126 164 -20 53 -112 82 -176 56z m111 -43 c21 -30 19
-100 -2 -125 -30 -34 -59 -37 -88 -8 -42 42 -32 137 18 155 29 11 55 3 72 -22z"/>
<path d="M3037 1512 c-10 -10 -17 -33 -17 -50 0 -27 7 -36 55 -66 55 -35 63
-57 28 -70 -17 -7 -63 18 -63 34 0 6 -7 10 -15 10 -10 0 -15 -10 -15 -34 l0
-33 62 -2 c70 -1 98 15 98 60 0 19 -9 35 -30 51 -87 66 -86 65 -69 83 14 14
18 14 41 -5 34 -26 38 -25 38 8 0 27 -2 29 -48 31 -36 1 -53 -4 -65 -17z"/>
<path d="M3264 1520 c-36 -14 -64 -59 -64 -102 0 -76 42 -118 116 -118 36 0
94 24 94 39 0 18 -15 20 -32 4 -47 -42 -118 -5 -118 63 l0 34 80 0 80 0 -6 28
c-9 41 -40 62 -88 61 -22 0 -51 -4 -62 -9z"/>
<path d="M3453 1523 c-28 -5 -30 -19 -3 -26 18 -5 20 -14 20 -87 0 -73 -2 -82
-20 -87 -41 -11 -18 -23 45 -23 63 0 86 12 45 23 -17 4 -20 14 -20 69 0 69 15
102 50 111 40 10 60 -24 60 -104 0 -62 -2 -71 -20 -76 -41 -11 -18 -23 45 -23
63 0 86 12 45 23 -18 5 -20 14 -20 86 0 68 -3 84 -20 101 -24 24 -79 26 -120
5 -27 -14 -30 -14 -30 0 0 15 -13 17 -57 8z"/>
<path d="M3913 1523 c-28 -5 -30 -19 -3 -26 18 -5 20 -14 20 -85 0 -72 -2 -81
-20 -87 -51 -16 -10 -25 115 -25 122 0 168 9 115 23 -17 4 -20 14 -20 70 0 76
20 110 64 110 39 0 46 -16 46 -105 0 -63 -3 -78 -15 -78 -8 0 -15 -4 -15 -10
0 -6 27 -10 60 -10 33 0 60 4 60 10 0 6 -7 10 -15 10 -24 0 -21 141 3 162 30
26 51 29 72 8 16 -16 20 -34 20 -91 0 -62 -2 -71 -20 -76 -41 -11 -18 -23 45
-23 63 0 86 12 45 23 -18 5 -20 14 -20 86 0 68 -3 84 -20 101 -25 25 -95 27
-128 4 -20 -14 -24 -14 -38 0 -20 21 -93 21 -121 1 -20 -14 -23 -14 -31 1 -7
12 -17 14 -45 9 -41 -8 -48 -20 -17 -28 19 -5 21 -12 18 -89 -3 -80 -4 -83
-28 -86 -47 -4 -55 10 -58 113 -4 104 -2 101 -69 88z"/>
<path d="M4564 1520 c-38 -15 -64 -59 -64 -107 0 -38 5 -50 34 -79 29 -29 41
-34 80 -34 102 0 160 75 126 164 -20 53 -112 82 -176 56z m111 -43 c21 -30 19
-100 -2 -125 -30 -34 -59 -37 -88 -8 -42 42 -32 137 18 155 29 11 55 3 72 -22z"/>
<path d="M4807 1512 c-10 -10 -17 -33 -17 -50 0 -27 7 -36 55 -66 55 -35 63
-57 28 -70 -17 -7 -63 18 -63 34 0 6 -7 10 -15 10 -10 0 -15 -10 -15 -34 l0
-33 62 -2 c70 -1 98 15 98 60 0 19 -9 35 -30 51 -87 66 -86 65 -69 83 14 14
18 14 41 -5 34 -26 38 -25 38 8 0 27 -2 29 -48 31 -36 1 -53 -4 -65 -17z"/>
<path d="M5274 1520 c-36 -14 -64 -59 -64 -102 0 -76 42 -118 116 -118 36 0
94 24 94 39 0 18 -15 20 -32 4 -47 -42 -118 -5 -118 63 l0 34 80 0 80 0 -6 28
c-9 41 -40 62 -88 61 -22 0 -51 -4 -62 -9z"/>
<path d="M5477 1512 c-10 -10 -17 -33 -17 -50 0 -27 7 -36 55 -66 55 -35 63
-57 28 -70 -17 -7 -63 18 -63 34 0 6 -7 10 -15 10 -10 0 -15 -10 -15 -34 l0
-33 62 -2 c70 -1 98 15 98 60 0 19 -9 35 -30 51 -87 66 -86 65 -69 83 14 14
18 14 41 -5 34 -26 38 -25 38 8 0 27 -2 29 -48 31 -36 1 -53 -4 -65 -17z"/>
<path d="M5864 1520 c-36 -14 -64 -59 -64 -102 0 -76 42 -118 116 -118 36 0
94 24 94 39 0 18 -15 20 -32 4 -47 -42 -118 -5 -118 63 l0 34 80 0 80 0 -6 28
c-9 41 -40 62 -88 61 -22 0 -51 -4 -62 -9z"/>
<path d="M6187 1512 c-10 -10 -17 -33 -17 -50 0 -27 7 -36 55 -66 55 -35 63
-57 28 -70 -17 -7 -63 18 -63 34 0 6 -7 10 -15 10 -10 0 -15 -10 -15 -34 l0
-33 62 -2 c70 -1 98 15 98 60 0 19 -9 35 -30 51 -87 66 -86 65 -69 83 14 14
18 14 41 -5 34 -26 38 -25 38 8 0 27 -2 29 -48 31 -36 1 -53 -4 -65 -17z"/>
<path d="M6864 1520 c-38 -15 -64 -59 -64 -107 0 -38 5 -50 34 -79 29 -29 41
-34 80 -34 102 0 160 75 126 164 -20 53 -112 82 -176 56z m111 -43 c21 -30 19
-100 -2 -125 -30 -34 -59 -37 -88 -8 -42 42 -32 137 18 155 29 11 55 3 72 -22z"/>
<path d="M7254 1520 c-36 -14 -64 -59 -64 -102 0 -76 42 -118 116 -118 36 0
94 24 94 39 0 18 -15 20 -32 4 -47 -42 -118 -5 -118 63 l0 34 80 0 80 0 -6 28
c-9 41 -40 62 -88 61 -22 0 -51 -4 -62 -9z"/>
<path d="M7467 1512 c-10 -10 -17 -33 -17 -50 0 -27 7 -36 55 -66 55 -35 63
-57 28 -70 -17 -7 -63 18 -63 34 0 6 -7 10 -15 10 -10 0 -15 -10 -15 -34 l0
-33 62 -2 c70 -1 98 15 98 60 0 19 -9 35 -30 51 -87 66 -86 65 -69 83 14 14
18 14 41 -5 34 -26 38 -25 38 8 0 27 -2 29 -48 31 -36 1 -53 -4 -65 -17z"/>
<path d="M7818 1519 c-10 -5 -18 -21 -18 -34 0 -33 32 -33 54 0 16 24 42 25
58 1 19 -27 6 -44 -48 -66 -30 -13 -62 -34 -71 -46 -14 -22 -14 -26 1 -49 18
-28 70 -34 108 -14 14 8 23 8 31 0 19 -19 87 -11 87 11 0 6 -8 7 -17 4 -25
-10 -33 12 -33 95 0 93 -13 109 -86 109 -27 0 -57 -5 -66 -11z"/>
<path d="M8204 1520 c-36 -14 -64 -59 -64 -102 0 -76 42 -118 116 -118 36 0
94 24 94 39 0 18 -15 20 -32 4 -47 -42 -118 -5 -118 63 l0 34 80 0 80 0 -6 28
c-9 41 -40 62 -88 61 -22 0 -51 -4 -62 -9z"/>
<path d="M8393 1523 c-28 -5 -30 -19 -3 -26 18 -5 20 -14 20 -87 0 -73 -2 -82
-20 -87 -41 -11 -18 -23 45 -23 63 0 86 12 45 23 -17 4 -20 14 -20 69 0 69 15
102 50 111 40 10 60 -24 60 -104 0 -62 -2 -71 -20 -76 -41 -11 -18 -23 45 -23
63 0 86 12 45 23 -18 5 -20 14 -20 86 0 68 -3 84 -20 101 -24 24 -79 26 -120
5 -27 -14 -30 -14 -30 0 0 15 -13 17 -57 8z"/>
<path d="M8834 1496 c-30 -30 -34 -40 -34 -86 0 -44 4 -56 29 -81 24 -24 38
-29 76 -29 52 0 113 26 98 41 -7 7 -23 4 -47 -7 -35 -17 -37 -17 -64 3 -22 16
-28 29 -30 71 -5 84 32 120 82 81 27 -22 51 -24 62 -7 13 21 -35 48 -88 48
-44 0 -54 -4 -84 -34z"/>
<path d="M9094 1520 c-38 -15 -64 -59 -64 -107 0 -38 5 -50 34 -79 29 -29 41
-34 80 -34 102 0 160 75 126 164 -20 53 -112 82 -176 56z m111 -43 c21 -30 19
-100 -2 -125 -30 -34 -59 -37 -88 -8 -42 42 -32 137 18 155 29 11 55 3 72 -22z"/>
<path d="M9323 1523 c-28 -5 -30 -19 -3 -26 18 -5 20 -14 20 -87 0 -73 -2 -82
-20 -87 -41 -11 -18 -23 45 -23 63 0 86 12 45 23 -17 4 -20 14 -20 69 0 69 15
102 50 111 40 10 60 -24 60 -104 0 -62 -2 -71 -20 -76 -41 -11 -18 -23 45 -23
63 0 86 12 45 23 -18 5 -20 14 -20 86 0 68 -3 84 -20 101 -24 24 -79 26 -120
5 -27 -14 -30 -14 -30 0 0 15 -13 17 -57 8z"/>
<path d="M9627 1512 c-10 -10 -17 -33 -17 -50 0 -27 7 -36 55 -66 55 -35 63
-57 28 -70 -17 -7 -63 18 -63 34 0 6 -7 10 -15 10 -10 0 -15 -10 -15 -34 l0
-33 62 -2 c70 -1 98 15 98 60 0 19 -9 35 -30 51 -87 66 -86 65 -69 83 14 14
18 14 41 -5 34 -26 38 -25 38 8 0 27 -2 29 -48 31 -36 1 -53 -4 -65 -17z"/>
<path d="M9978 1518 c-42 -11 -49 -23 -18 -31 18 -5 20 -14 20 -82 0 -68 -2
-77 -20 -82 -41 -11 -18 -23 45 -23 63 0 86 12 45 23 -16 4 -20 14 -20 49 0
23 8 59 18 78 15 32 20 35 55 32 29 -3 37 0 37 13 0 9 6 15 13 13 8 -3 14 -35
17 -92 5 -71 9 -91 25 -102 25 -18 86 -18 111 1 25 19 34 19 34 0 0 -11 11
-15 40 -15 42 0 54 14 20 23 -18 5 -20 14 -20 106 l0 101 -45 0 c-46 0 -61
-14 -25 -23 41 -11 20 -164 -25 -181 -45 -17 -65 27 -65 140 l0 64 -69 0 c-54
0 -74 -4 -95 -21 l-26 -20 0 20 c0 23 1 23 -52 9z"/>
<path d="M10474 1496 c-30 -30 -34 -40 -34 -86 0 -44 4 -56 29 -81 24 -24 38
-29 76 -29 52 0 113 26 98 41 -7 7 -23 4 -47 -7 -35 -17 -37 -17 -64 3 -22 16
-28 29 -30 71 -5 84 32 120 82 81 27 -22 51 -24 62 -7 13 21 -35 48 -88 48
-44 0 -54 -4 -84 -34z"/>
<path d="M10704 1496 c-30 -30 -34 -40 -34 -86 0 -44 4 -56 29 -81 24 -24 38
-29 76 -29 52 0 113 26 98 41 -7 7 -23 4 -47 -7 -35 -17 -37 -17 -64 3 -22 16
-28 29 -30 71 -5 84 32 120 82 81 27 -22 51 -24 62 -7 13 21 -35 48 -88 48
-44 0 -54 -4 -84 -34z"/>
<path d="M11104 1520 c-38 -15 -64 -59 -64 -107 0 -38 5 -50 34 -79 29 -29 41
-34 80 -34 102 0 160 75 126 164 -20 53 -112 82 -176 56z m111 -43 c21 -30 19
-100 -2 -125 -30 -34 -59 -37 -88 -8 -42 42 -32 137 18 155 29 11 55 3 72 -22z"/>
<path d="M11333 1523 c-28 -5 -30 -19 -3 -26 18 -5 20 -14 20 -87 0 -73 -2
-82 -20 -87 -41 -11 -18 -23 45 -23 63 0 86 12 45 23 -17 4 -20 14 -20 69 0
69 15 102 50 111 40 10 60 -24 60 -104 0 -62 -2 -71 -20 -76 -41 -11 -18 -23
45 -23 63 0 86 12 45 23 -18 5 -20 14 -20 86 0 68 -3 84 -20 101 -24 24 -79
26 -120 5 -27 -14 -30 -14 -30 0 0 15 -13 17 -57 8z"/>
</g>
</svg>
